<svg width="91" height="24" viewBox="0 0 91 24" fill="none" xmlns="http://www.w3.org/2000/svg">
<g clip-path="url(#clip0_26034_9592)">
<path d="M34.3474 4.9082H29.3736C29.0332 4.9082 28.7438 5.15548 28.6907 5.49148L26.679 18.2457C26.639 18.4973 26.834 18.7242 27.0892 18.7242H29.4638C29.8041 18.7242 30.0936 18.4769 30.1467 18.1402L30.6892 14.7002C30.7416 14.3635 31.0318 14.1162 31.3714 14.1162H32.946C36.2223 14.1162 38.1132 12.5307 38.6071 9.38893C38.8296 8.01438 38.6165 6.93438 37.9729 6.17802C37.266 5.34748 36.0121 4.9082 34.3474 4.9082ZM34.9212 9.56639C34.6492 11.3511 33.2856 11.3511 31.9671 11.3511H31.2165L31.7431 8.01802C31.7743 7.81657 31.9489 7.6682 32.1525 7.6682H32.4965C33.3947 7.6682 34.242 7.6682 34.6798 8.1802C34.9409 8.48566 35.0209 8.93948 34.9212 9.56639Z" fill="#253B80"/>
<path d="M49.2147 9.50916H46.8328C46.6299 9.50916 46.4547 9.65752 46.4234 9.85897L46.3179 10.5252L46.1514 10.2837C45.6357 9.53534 44.4859 9.28516 43.3383 9.28516C40.7063 9.28516 38.4583 11.2786 38.0205 14.075C37.7928 15.4699 38.1165 16.8037 38.9077 17.7339C39.6336 18.5892 40.6721 18.9455 41.9077 18.9455C44.0285 18.9455 45.2045 17.5819 45.2045 17.5819L45.0983 18.2437C45.0583 18.4968 45.2532 18.7237 45.507 18.7237H47.6525C47.9936 18.7237 48.2816 18.4764 48.3354 18.1397L49.6227 9.9877C49.6634 9.73679 49.4692 9.50916 49.2147 9.50916ZM45.8947 14.1448C45.6648 15.5055 44.5848 16.419 43.2074 16.419C42.5157 16.419 41.963 16.1972 41.6081 15.7768C41.2561 15.3593 41.1223 14.7652 41.2343 14.1033C41.4488 12.7542 42.547 11.811 43.9034 11.811C44.5797 11.811 45.1296 12.0357 45.4917 12.4597C45.8547 12.8881 45.9987 13.4859 45.8947 14.1448Z" fill="#253B80"/>
<path d="M61.8999 9.50928H59.5065C59.2781 9.50928 59.0635 9.62273 58.9341 9.81255L55.633 14.6751L54.2337 10.0024C54.1457 9.71 53.8759 9.50928 53.5705 9.50928H51.2185C50.9326 9.50928 50.7341 9.78855 50.825 10.0576L53.4614 17.7944L50.9828 21.2933C50.7879 21.5689 50.9843 21.9478 51.321 21.9478H53.7116C53.9385 21.9478 54.1508 21.8373 54.2795 21.6511L62.2403 10.1602C62.4308 9.88528 62.2352 9.50928 61.8999 9.50928Z" fill="#253B80"/>
<path d="M69.824 4.9082H64.8494C64.5098 4.9082 64.2203 5.15548 64.1672 5.49148L62.1556 18.2457C62.1156 18.4973 62.3105 18.7242 62.5643 18.7242H65.1171C65.3542 18.7242 65.5571 18.5511 65.5942 18.3155L66.1651 14.7002C66.2174 14.3635 66.5076 14.1162 66.8473 14.1162H68.4211C71.6982 14.1162 73.5883 12.5307 74.0829 9.38893C74.3062 8.01438 74.0916 6.93438 73.448 6.17802C72.7418 5.34748 71.4887 4.9082 69.824 4.9082ZM70.3978 9.56639C70.1265 11.3511 68.7629 11.3511 67.4436 11.3511H66.6938L67.2211 8.01802C67.2523 7.81657 67.4254 7.6682 67.6298 7.6682H67.9738C68.8712 7.6682 69.7192 7.6682 70.1571 8.1802C70.4182 8.48566 70.4974 8.93948 70.3978 9.56639Z" fill="#179BD7"/>
<path d="M84.691 9.50916H82.3107C82.1063 9.50916 81.9325 9.65752 81.9019 9.85897L81.7965 10.5252L81.6292 10.2837C81.1136 9.53534 79.9645 9.28516 78.8169 9.28516C76.1849 9.28516 73.9376 11.2786 73.4998 14.075C73.2729 15.4699 73.595 16.8037 74.3863 17.7339C75.1136 18.5892 76.1507 18.9455 77.3863 18.9455C79.507 18.9455 80.683 17.5819 80.683 17.5819L80.5769 18.2437C80.5369 18.4968 80.7318 18.7237 80.987 18.7237H83.1318C83.4714 18.7237 83.7608 18.4764 83.8139 18.1397L85.1019 9.9877C85.1412 9.73679 84.9463 9.50916 84.691 9.50916ZM81.371 14.1448C81.1427 15.5055 80.0612 16.419 78.6838 16.419C77.9936 16.419 77.4394 16.1972 77.0845 15.7768C76.7325 15.3593 76.6001 14.7652 76.7107 14.1033C76.9267 12.7542 78.0234 11.811 79.3798 11.811C80.0561 11.811 80.6059 12.0357 80.9681 12.4597C81.3325 12.8881 81.4765 13.4859 81.371 14.1448Z" fill="#179BD7"/>
<path d="M87.4988 5.25826L85.4574 18.2459C85.4174 18.4975 85.6123 18.7244 85.8661 18.7244H87.9185C88.2596 18.7244 88.549 18.4772 88.6014 18.1404L90.6145 5.38699C90.6545 5.13535 90.4596 4.90771 90.2057 4.90771H87.9076C87.7046 4.90844 87.5301 5.05681 87.4988 5.25826Z" fill="#179BD7"/>
<path d="M6.02347 21.2028L6.40383 18.7868L5.55656 18.7672H1.51074L4.32238 0.939538C4.33111 0.88572 4.35947 0.835538 4.40092 0.799902C4.44238 0.764265 4.49547 0.744629 4.55074 0.744629H11.3726C13.6373 0.744629 15.2002 1.2159 16.0162 2.14608C16.3987 2.58245 16.6424 3.03845 16.7602 3.54027C16.8838 4.06681 16.886 4.6959 16.7653 5.46317L16.7566 5.51917V6.01081L17.1391 6.22754C17.4613 6.39845 17.7173 6.59408 17.9137 6.81808C18.2409 7.19117 18.4526 7.66536 18.542 8.22754C18.6344 8.80572 18.6038 9.49372 18.4526 10.2726C18.278 11.1686 17.9958 11.949 17.6147 12.5875C17.2642 13.1759 16.8176 13.6639 16.2875 14.0421C15.7813 14.4014 15.1798 14.6741 14.4998 14.8486C13.8409 15.0203 13.0897 15.1068 12.2657 15.1068H11.7347C11.3551 15.1068 10.9864 15.2435 10.6969 15.4886C10.4067 15.7388 10.2147 16.0806 10.1558 16.4544L10.1158 16.6719L9.44383 20.9301L9.41329 21.0864C9.40529 21.1359 9.39147 21.1606 9.37111 21.1774C9.35292 21.1926 9.32674 21.2028 9.30129 21.2028H6.02347Z" fill="#253B80"/>
<path d="M17.5018 5.57617C17.4814 5.70635 17.4582 5.83944 17.432 5.97617C16.5324 10.5951 13.4545 12.1907 9.52363 12.1907H7.52217C7.04145 12.1907 6.63636 12.5398 6.56145 13.014L5.53672 19.5129L5.24654 21.3551C5.19781 21.6664 5.43781 21.9471 5.75199 21.9471H9.30181C9.72217 21.9471 10.0793 21.6416 10.1454 21.2271L10.1804 21.0467L10.8487 16.8053L10.8916 16.5725C10.9571 16.1565 11.3149 15.8511 11.7353 15.8511H12.2662C15.7054 15.8511 18.3978 14.4547 19.1847 10.414C19.5134 8.72599 19.3433 7.31654 18.4734 6.32526C18.2102 6.02635 17.8836 5.77835 17.5018 5.57617Z" fill="#179BD7"/>
<path d="M16.5608 5.20084C16.4233 5.16084 16.2815 5.12448 16.1361 5.09175C15.9899 5.05975 15.8401 5.03138 15.6859 5.00666C15.1463 4.91938 14.555 4.87793 13.9215 4.87793H8.57461C8.44298 4.87793 8.31789 4.90775 8.20589 4.96157C7.95934 5.08011 7.77607 5.31357 7.73171 5.59938L6.59425 12.8037L6.56152 13.0139C6.63643 12.5397 7.04152 12.1907 7.52225 12.1907H9.52371C13.4546 12.1907 16.5324 10.5943 17.4321 5.97611C17.459 5.83938 17.4815 5.70629 17.5019 5.57611C17.2743 5.45538 17.0277 5.35211 16.7622 5.26411C16.6968 5.24229 16.6292 5.2212 16.5608 5.20084Z" fill="#222D65"/>
<path d="M7.73125 5.59927C7.77561 5.31345 7.95889 5.08 8.20543 4.96218C8.31816 4.90836 8.44252 4.87855 8.57416 4.87855H13.9211C14.5545 4.87855 15.1458 4.92 15.6854 5.00727C15.8396 5.032 15.9894 5.06036 16.1356 5.09236C16.2811 5.12509 16.4229 5.16145 16.5603 5.20145C16.6287 5.22182 16.6963 5.24291 16.7625 5.264C17.028 5.352 17.2745 5.456 17.5022 5.576C17.7698 3.86909 17.5 2.70691 16.5771 1.65455C15.5596 0.496 13.7232 0 11.3734 0H4.55161C4.07161 0 3.66216 0.349091 3.58798 0.824L0.746522 18.8349C0.690522 19.1913 0.965431 19.5127 1.3247 19.5127H5.53634L6.5938 12.8036L7.73125 5.59927Z" fill="#253B80"/>
</g>
<defs>
<clipPath id="clip0_26034_9592">
<rect width="90.1818" height="24" fill="white" transform="translate(0.739258)"/>
</clipPath>
</defs>
</svg>
